<svg width="20" height="21" viewBox="0 0 20 21" fill="none" xmlns="http://www.w3.org/2000/svg">
<g filter="url(#filter0_d)">
<path d="M15.7764 10.4211L6.22466 1.20153C6.08815 1.06965 5.90932 1 5.72776 1C5.63204 1 5.53563 1.01919 5.44434 1.05894C5.17951 1.17388 5.00751 1.43746 5.00734 1.72938L5 15.0938C5 15.389 5.17524 15.655 5.44451 15.7681C5.53358 15.8058 5.62726 15.8237 5.72026 15.8237C5.90779 15.8237 6.0919 15.7496 6.22978 15.6103L9.03726 12.7674L11.4287 17.7027C11.5536 17.9605 11.8092 18.1111 12.0758 18.1111C12.1754 18.1111 12.2766 18.09 12.373 18.0458L13.109 17.7075C13.4677 17.5426 13.6291 17.1167 13.4716 16.751L11.3272 11.7743L15.2967 11.6789C15.588 11.6718 15.8467 11.4877 15.9516 11.2126C16.0566 10.9369 15.9874 10.6249 15.7764 10.4211ZM15.3914 10.9932C15.374 11.0392 15.331 11.0696 15.2822 11.0707L11.3129 11.1664C11.1129 11.1711 10.9284 11.2765 10.8209 11.4473C10.7134 11.6182 10.6967 11.832 10.7769 12.0176L12.9213 16.9944C12.9474 17.0549 12.9203 17.1266 12.8609 17.1537L12.1249 17.492C12.1091 17.4994 12.0925 17.5029 12.0756 17.5029C12.0394 17.5029 11.9918 17.4849 11.9673 17.4346L9.5763 12.4995C9.49098 12.3232 9.32683 12.1998 9.13571 12.1675C9.10295 12.1621 9.07002 12.1592 9.03726 12.1592C8.87942 12.1592 8.72636 12.2223 8.61288 12.3374L5.8054 15.1801C5.77469 15.2114 5.73886 15.2157 5.72026 15.2157C5.70456 15.2157 5.68937 15.2126 5.67453 15.2063C5.62948 15.1875 5.6003 15.1436 5.6003 15.0943L5.60747 1.72955C5.60747 1.68081 5.63613 1.63709 5.68067 1.6179C5.69534 1.61133 5.71121 1.60805 5.72759 1.60805C5.74534 1.60805 5.78015 1.61254 5.81052 1.64158L15.3622 10.8613C15.3976 10.8956 15.4092 10.9474 15.3914 10.9932Z" fill="black"/>
<path d="M15.2822 11.0708C15.331 11.0697 15.374 11.0393 15.3915 10.9933C15.4092 10.9475 15.3976 10.8957 15.3623 10.8614L5.81057 1.64169C5.78019 1.61265 5.74538 1.60815 5.72764 1.60815C5.71126 1.60815 5.69539 1.61144 5.68071 1.61801C5.63618 1.63719 5.60751 1.68092 5.60751 1.72966L5.60034 15.0945C5.60034 15.1437 5.62952 15.1876 5.67457 15.2065C5.68941 15.2127 5.7046 15.2158 5.7203 15.2158C5.7389 15.2158 5.77473 15.2115 5.80545 15.1802L8.61293 12.3375C8.7264 12.2224 8.87946 12.1593 9.0373 12.1593C9.07006 12.1593 9.10299 12.1622 9.13576 12.1676C9.32687 12.1999 9.49102 12.3233 9.57634 12.4996L11.9673 17.4347C11.9919 17.485 12.0395 17.503 12.0756 17.503C12.0925 17.503 12.1091 17.4995 12.125 17.4921L12.8609 17.1538C12.9203 17.1267 12.9474 17.055 12.9213 16.9945L10.7769 12.0177C10.6967 11.8321 10.7135 11.6183 10.821 11.4474C10.9285 11.2766 11.1129 11.1712 11.3129 11.1665L15.2822 11.0708Z" fill="white"/>
</g>
<defs>
<filter id="filter0_d" x="-1" y="0" width="22" height="22" filterUnits="userSpaceOnUse" color-interpolation-filters="sRGB">
<feFlood flood-opacity="0" result="BackgroundImageFix"/>
<feColorMatrix in="SourceAlpha" type="matrix" values="0 0 0 0 0 0 0 0 0 0 0 0 0 0 0 0 0 0 127 0"/>
<feOffset dy="1"/>
<feGaussianBlur stdDeviation="0.5"/>
<feColorMatrix type="matrix" values="0 0 0 0 0 0 0 0 0 0 0 0 0 0 0 0 0 0 0.25 0"/>
<feBlend mode="normal" in2="BackgroundImageFix" result="effect1_dropShadow"/>
<feBlend mode="normal" in="SourceGraphic" in2="effect1_dropShadow" result="shape"/>
</filter>
</defs>
</svg>
